<mxfile host="app.diagrams.net" modified="2023-05-12T06:53:42.230Z" agent="Mozilla/5.0 (Macintosh; Intel Mac OS X 10_15_7) AppleWebKit/605.1.15 (KHTML, like Gecko) Version/16.4 Safari/605.1.15" version="21.2.9" etag="idjssJ1T2iQBb59IsVjz" type="github">
  <diagram name="Page-1" id="pk9Wmbpx2sCBPcUOlJJ9">
    <mxGraphModel>
      <root>
        <mxCell id="0" />
        <mxCell id="1" parent="0" />
      </root>
    </mxGraphModel>
  </diagram>
</mxfile>
